<?xml version="1.0" standalone="no"?>
<!DOCTYPE svg PUBLIC "-//W3C//DTD SVG 20010904//EN"
 "http://www.w3.org/TR/2001/REC-SVG-20010904/DTD/svg10.dtd">
<svg version="1.0" xmlns="http://www.w3.org/2000/svg"
 width="256.000000pt" height="256.000000pt" viewBox="0 0 256.000000 256.000000"
 preserveAspectRatio="xMidYMid meet">

<g transform="translate(0.000000,256.000000) scale(0.100000,-0.100000)"
fill="#000000" stroke="none">
<path d="M708 2473 c-53 -61 -373 -552 -384 -590 -8 -26 -14 -84 -14 -130 0
-79 -2 -88 -40 -156 -50 -92 -58 -139 -36 -221 l18 -64 -88 -213 -88 -212 29
-86 c31 -93 68 -141 107 -141 13 0 52 14 88 31 44 21 98 36 165 46 140 21 153
36 85 97 l-40 36 28 6 c99 22 111 39 59 92 l-37 38 35 34 c34 33 39 35 129 40
92 5 95 6 162 53 179 124 229 164 232 184 4 28 -15 37 -105 53 -40 7 -73 16
-73 19 1 3 19 20 40 36 22 17 42 38 45 48 8 21 -11 47 -34 47 -14 1 -14 2 1
14 9 7 87 50 172 96 134 71 156 86 156 107 0 15 -8 27 -22 33 -13 5 -116 12
-230 16 -115 3 -208 8 -208 10 0 2 31 66 69 142 l69 139 73 32 c140 63 277
106 427 136 40 8 41 0 3 -19 -16 -9 -31 -23 -35 -32 -12 -31 13 -44 83 -44
141 -1 391 -32 391 -49 0 -4 -16 -15 -35 -24 -41 -20 -54 -43 -34 -62 8 -8 61
-30 118 -50 58 -20 139 -54 180 -75 l76 -39 -50 -1 c-99 0 -99 -38 -2 -116 74
-60 201 -184 194 -190 -1 -2 -20 2 -40 8 -32 10 -40 9 -54 -5 -15 -15 -15 -21
5 -84 59 -194 63 -384 11 -571 -97 -346 -379 -616 -736 -704 -131 -32 -332
-30 -464 5 -222 58 -410 181 -548 357 -51 65 -67 76 -87 60 -24 -21 -16 -49
30 -108 210 -273 538 -423 891 -409 275 11 519 118 711 311 135 136 230 302
281 491 23 88 26 119 27 260 0 120 -4 177 -17 229 -10 38 -16 71 -14 73 2 2
20 -4 40 -12 144 -60 117 54 -54 228 l-96 97 52 0 c86 0 100 39 33 93 -67 54
-177 111 -326 168 l-27 11 38 19 c21 11 41 27 44 35 16 42 -98 85 -291 109
-66 9 -128 17 -136 18 -8 1 6 15 33 30 49 29 60 54 32 77 -38 32 -365 -28
-565 -103 -52 -20 -96 -34 -98 -33 -2 2 25 61 60 130 51 102 61 130 52 144 -6
9 -19 17 -30 17 -11 0 -140 -136 -346 -365 -263 -293 -327 -370 -325 -390 1
-19 8 -26 27 -28 21 -2 57 33 244 243 120 135 220 245 222 245 2 0 -44 -97
-103 -215 -88 -175 -106 -218 -97 -233 9 -14 38 -18 195 -27 l184 -10 -148
-80 c-84 -46 -150 -88 -153 -98 -7 -23 10 -43 43 -52 25 -6 25 -7 -28 -55 -77
-69 -70 -78 101 -116 l25 -6 -30 -24 c-16 -13 -63 -47 -103 -74 -71 -48 -76
-50 -145 -50 -91 0 -139 -22 -195 -85 -47 -53 -49 -61 -26 -93 9 -13 14 -24
13 -26 -2 -1 -26 -7 -54 -12 -44 -8 -50 -12 -53 -35 -2 -19 5 -33 29 -53 17
-15 29 -29 26 -32 -3 -3 -25 -8 -49 -11 -24 -3 -72 -19 -107 -34 -35 -16 -69
-29 -75 -29 -11 0 -56 115 -56 142 0 8 36 102 81 209 76 183 80 197 73 244 -4
28 -7 79 -8 115 -1 60 2 71 42 136 l42 70 0 106 0 107 126 190 c70 105 129
189 131 187 3 -2 -5 -53 -17 -112 -21 -103 -21 -108 -4 -121 24 -18 31 -17 48
10 23 36 101 427 89 446 -15 23 -37 25 -55 4z"/>
<path d="M1302 2079 c-58 -26 -63 -31 -60 -56 4 -39 32 -40 104 -6 60 29 76
52 54 78 -16 20 -24 18 -98 -16z"/>
<path d="M1665 2033 c-54 -13 -50 -73 5 -73 16 0 41 5 55 10 21 8 26 16 23 38
-2 22 -8 27 -33 29 -16 0 -39 -1 -50 -4z"/>
<path d="M1462 1950 c-53 -24 -63 -33 -60 -51 6 -42 32 -46 98 -14 67 32 84
51 69 78 -14 23 -33 21 -107 -13z"/>
<path d="M1903 1883 c-16 -6 -17 -45 -1 -61 27 -27 118 -6 118 28 0 31 -73 51
-117 33z"/>
<path d="M1688 1868 c-53 -11 -72 -39 -44 -66 13 -13 24 -14 86 -3 51 9 73 18
81 33 23 44 -22 57 -123 36z"/>
<path d="M1812 1718 c-17 -17 -15 -46 6 -56 9 -5 47 -13 84 -16 60 -7 68 -5
77 12 17 31 -7 51 -74 62 -76 12 -79 12 -93 -2z"/>
<path d="M2043 1674 c-14 -37 48 -72 90 -52 21 11 22 54 1 62 -32 12 -84 6
-91 -10z"/>
<path d="M1347 1620 c-60 -11 -170 -45 -217 -68 -25 -12 -36 -25 -38 -44 -5
-38 23 -43 94 -14 216 88 420 43 493 -108 81 -167 17 -362 -152 -464 -91 -55
-178 -79 -342 -97 -168 -17 -219 -30 -306 -76 -78 -42 -207 -152 -215 -184 -6
-24 9 -55 27 -55 5 0 43 32 86 70 131 120 205 151 398 170 145 14 205 26 295
61 266 103 391 372 278 601 -39 78 -25 77 46 -4 55 -62 76 -124 76 -218 0
-136 -55 -266 -155 -365 -75 -74 -146 -112 -300 -160 -199 -61 -317 -124 -427
-224 -66 -61 -77 -96 -31 -107 21 -6 31 -2 48 18 83 97 227 177 445 247 166
54 240 94 320 174 96 95 150 206 171 351 21 143 -16 259 -115 357 -121 121
-290 170 -479 139z"/>
<path d="M487 1519 c-51 -76 -55 -100 -32 -156 13 -31 17 -34 31 -22 27 22 52
83 67 162 8 42 12 79 9 82 -15 14 -32 -1 -75 -66z"/>
<path d="M1979 1524 c-17 -21 -3 -43 47 -72 52 -30 88 -26 92 10 3 24 -3 30
-47 53 -59 29 -74 31 -92 9z"/>
<path d="M2160 1425 c-17 -20 -5 -48 29 -68 34 -20 57 -14 67 16 5 16 -1 27
-22 44 -33 26 -56 29 -74 8z"/>
<path d="M2127 1273 c-4 -3 -7 -16 -7 -29 0 -26 88 -88 113 -78 18 7 28 29 21
47 -14 35 -108 80 -127 60z"/>
<path d="M2145 1059 c-12 -38 50 -84 80 -59 22 18 18 47 -7 64 -32 23 -65 20
-73 -5z"/>
<path d="M246 934 c-19 -18 -21 -85 -4 -102 7 -7 20 -12 30 -12 37 0 52 84 20
113 -23 21 -27 21 -46 1z"/>
</g>
</svg>
